<?xml version="1.0" encoding="utf-8"?>
<!-- Generator: Adobe Illustrator 16.2.0, SVG Export Plug-In . SVG Version: 6.00 Build 0)  -->
<!DOCTYPE svg PUBLIC "-//W3C//DTD SVG 1.1//EN" "http://www.w3.org/Graphics/SVG/1.1/DTD/svg11.dtd">
<svg version="1.1" id="Layer_1" xmlns="http://www.w3.org/2000/svg" xmlns:xlink="http://www.w3.org/1999/xlink" x="0px" y="0px"
	 width="16px" height="16px" viewBox="0 0 16 16" enable-background="new 0 0 16 16" xml:space="preserve">
<g>
	<rect fill="#00508F" width="16" height="16"/>
	<path fill="#FFFFFF" d="M7.491,11.113v3.918H6.218v-3.759l-3.425,3.342c-0.163,0.176-0.332,0.301-0.509,0.378
		c-0.177,0.076-0.362,0.115-0.554,0.115c-0.198,0-0.375-0.038-0.53-0.113c-0.155-0.075-0.286-0.178-0.394-0.305
		s-0.189-0.276-0.246-0.447c-0.057-0.171-0.085-0.353-0.085-0.545V0h1.28v13.771l3.428-3.372c0.333-0.326,0.682-0.489,1.047-0.489
		c0.162,0,0.319,0.023,0.471,0.07c0.151,0.046,0.286,0.119,0.402,0.218c0.116,0.099,0.21,0.224,0.281,0.375
		C7.456,10.725,7.491,10.904,7.491,11.113z"/>
	<path fill="#FFFFFF" d="M9.391,15.031H8.17v-3.775c0-0.17,0.032-0.331,0.094-0.481c0.063-0.15,0.151-0.283,0.262-0.396
		c0.111-0.113,0.24-0.202,0.389-0.269c0.148-0.065,0.308-0.099,0.482-0.099c0.164,0,0.314,0.028,0.453,0.086
		c0.139,0.056,0.266,0.134,0.379,0.23s0.213,0.213,0.299,0.345s0.16,0.272,0.219,0.42l1.139,2.801l1.242-2.95
		c0.053-0.142,0.121-0.271,0.199-0.386c0.08-0.115,0.172-0.214,0.277-0.295c0.104-0.08,0.219-0.142,0.348-0.186
		c0.127-0.043,0.266-0.065,0.416-0.065c0.191,0,0.363,0.039,0.518,0.116c0.154,0.076,0.287,0.179,0.395,0.308
		c0.111,0.128,0.195,0.276,0.254,0.444c0.059,0.169,0.088,0.345,0.088,0.526v3.625H14.4V11.34l-1.203,2.637
		c-0.09,0.197-0.174,0.369-0.252,0.517c-0.078,0.148-0.164,0.271-0.258,0.368c-0.092,0.097-0.199,0.17-0.322,0.219
		s-0.277,0.074-0.461,0.074c-0.162,0-0.311-0.033-0.443-0.1c-0.133-0.064-0.254-0.151-0.361-0.263
		c-0.109-0.109-0.207-0.234-0.293-0.377s-0.164-0.29-0.232-0.446l-1.184-2.583V15.031z"/>
</g>
</svg>
