<svg xmlns="http://www.w3.org/2000/svg" viewBox="0 0 45.8 45.9" width="46" height="46"><style></style><path d="M20.2 0l-.7 2.8c-.7.2-1.4.5-2 .8L15 2.1l-4 4 1.5 2.5c-.3.6-.6 1.3-.8 2l-2.8.6v2.1H3v19.3h14.8v-7.9c.5.3 1.1.5 1.7.7l.7 2.8h5.6l.7-2.8c.7-.2 1.4-.5 2-.8l2.5 1.5 4-4-1.5-2.5c.3-.6.6-1.3.8-2l2.8-.7v-5.6l-2.8-.7c-.2-.7-.5-1.4-.8-2L35 6.1l-4-4-2.5 1.5c-.6-.3-1.3-.6-2-.8L25.8 0h-5.6zm1.1 1.4h3.3l.6 2.5.4.1c.9.2 1.7.6 2.5 1l.4.2 2.2-1.3L33 6.2l-1.3 2.2.2.4c.4.8.8 1.6 1 2.5l.1.4 2.5.6v3.3l-2.5.6-.1.4c-.2.9-.6 1.7-1 2.5l-.2.4 1.3 2.2-2.3 2.3-2.2-1.3-.4.2c-.8.4-1.6.8-2.5 1l-.4.1-.6 2.5h-3.3l-.6-2.5-.4-.1c-.9-.2-1.7-.6-2.5-1l-.4-.2-2.2 1.3-2.3-2.3 1.3-2.2-.2-.4c-.4-.8-.8-1.6-1-2.5l-.1-.4-2.5-.6v-3.3l2.5-.6.1-.4c.2-.9.6-1.7 1-2.5l.2-.4-1.3-2.2 2.3-2.3 2.2 1.3.4-.2c.8-.4 1.6-.8 2.5-1l.4-.1.6-2.5zM23 5.1c-4.9 0-8.9 4-8.9 8.9s4 8.9 8.9 8.9 8.9-4 8.9-8.9-4-8.9-8.9-8.9zm0 1.5c4.1 0 7.4 3.3 7.4 7.4 0 4.1-3.3 7.4-7.4 7.4-4.1 0-7.4-3.3-7.4-7.4 0-4.1 3.3-7.4 7.4-7.4zm0 1.5c-3.3 0-5.9 2.7-5.9 5.9 0 3.3 2.6 5.9 5.9 5.9 3.3 0 5.9-2.7 5.9-5.9 0-3.3-2.7-5.9-5.9-5.9zm0 1.4c2.5 0 4.5 2 4.5 4.5s-2 4.5-4.5 4.5-4.5-2-4.5-4.5 2-4.5 4.5-4.5zm-19.3.8C1.7 10.3 0 12 0 14v23.7c0 2 1.7 3.7 3.7 3.7h9.6v3h-3v1.5h25.2v-1.5h-3v-3h9.6c2 0 3.7-1.7 3.7-3.7V14c.2-2-1.5-3.7-3.5-3.7h-3.7v1.5h3.7c1.2 0 2.2 1 2.2 2.2v20h-43V14c0-1.2 1-2.2 2.2-2.2h3.7v-1.5H3.7zm17.1 3v1.5h1.5v-1.5h-1.5zm2.9 0v1.5h1.5v-1.5h-1.5zM4.5 14.8H9v2.1l2.8.7c.2.7.5 1.4.8 2l-1.5 2.5 4 4 1.3-.8v5.9H4.5V14.8zm1.4 1.4v1.5h1.5v-1.5H5.9zm0 3v1.5h3v-1.5h-3zm0 3v1.5h3v-1.5h-3zm31.2 0v1.5H43v-1.5h-5.9zM5.9 25.1v1.5h5.9v-1.5H5.9zm28.2 0v1.5H43v-1.5h-8.9zm-28.2 3v1.5h8.9v-1.5H5.9zm26.7 0v1.5H43v-1.5H32.6zm0 3v1.5H43v-1.5H32.6zM1.5 35.6h43v2.2c0 1.2-1 2.2-2.2 2.2H3.7c-1.2 0-2.2-1-2.2-2.2v-2.2zM35.6 37v1.5h1.5V37h-1.5zm3 0v1.5h1.5V37h-1.5zm2.9 0v1.5H43V37h-1.5zm-26.6 4.4h16.3v3H14.9v-3z" fill="#fff"/></svg>