<svg xmlns="http://www.w3.org/2000/svg" viewBox="0 0 45.9 46" width="46" height="46"><style></style><path d="M20.1 0l-.6 2.7c-1 .3-1.9.7-2.8 1.2l-2.3-1.5-3.9 3.9.8 1.9h-.1c-1.4 0-2.8.5-3.8 1.5S5.8 12 5.8 13.4v1.5c0 1.7.8 3.3 2.2 4.3v.4l-2 .5-3.7-2.2H0v15.4l7.3 2.4h1.4l.2-.6 2.2 1.3c0 1.2 1 2.2 2.2 2.2 0 1.2 1 2.2 2.2 2.2 0 1.2 1 2.2 2.2 2.2 0 1.2 1.1 2.2 2.3 2.2.5 0 .9-.1 1.3-.4l.7.6c.4.4.9.6 1.5.6h.1c1.2 0 2.2-1 2.3-2.2 1.2 0 2.2-1 2.2-2.2 1.2 0 2.2-1 2.2-2.2 1.2 0 2.2-1 2.2-2.3v-.2l13.4-6.7V19.5h-1.6l-2.5 1.3c-.3-.2-.6-.3-.9-.4l-3.1-.8v-.4c1.4-1 2.2-2.6 2.2-4.3v-1.3c0-2.9-2.3-5.3-5-5.4h-.4l.8-1.9-3.9-3.9-2.3 1.5c-.9-.5-1.8-.9-2.8-1.2L25.8 0h-5.7zm1.3 1.8h3.2l.5 2.4.5.1c1.1.3 2.2.7 3.2 1.3l.4.2 2.1-1.4 2.4 2.4-.8 2c-.6.2-1.1.6-1.6 1l-.1.1c-1.7-2.8-4.8-4.5-8.2-4.5-3.4 0-6.5 1.8-8.2 4.6-.5-.5-1-.9-1.6-1.2l-.9-2 2.4-2.4 2.1 1.4.4-.2c1-.6 2.1-1.1 3.2-1.3l.5-.1.5-2.4zM23 6.9c3 0 5.8 1.7 7.2 4.4-.4.7-.5 1.5-.5 2.3v1.5c0 1.7.8 3.3 2.2 4.3v.4l-3 .7-3-.7v-.4c1.4-1 2.2-2.6 2.2-4.3v-1.3c0-2.9-2.3-5.3-5-5.4-1.4 0-2.8.5-3.8 1.5s-1.6 2.3-1.6 3.7v1.5c0 1.7.8 3.3 2.2 4.3v.4l-3 .7-3-.7v-.4c1.4-1 2.2-2.6 2.2-4.3v-1.3c.2-.9 0-1.8-.4-2.5 1.4-2.7 4.2-4.4 7.3-4.4zm0 2.9c2 .1 3.6 1.8 3.6 3.9V15c0 1.3-.7 2.5-1.9 3.2l-.4.2v2.3l4.2 1.1c1 .2 1.7 1.1 1.7 2.2v2.8l-.2.1h-.5l-4.6-1.3c0-.1-.4-.1-.8-.2l-3.4-1.1c-1.5-.5-3.2-.6-4.8-.2l-.4.1V24c0-1 .7-1.9 1.7-2.2l4.3-1.1v-2.3l-.4-.2c-1.1-.7-1.9-1.9-1.9-3.2v-1.5c0-1 .4-2 1.1-2.7.7-.7 1.7-1.1 2.7-1zm11.9 0c2.1.1 3.7 1.9 3.7 3.9V15c0 1.3-.7 2.5-1.9 3.2l-.4.2v2.3l3.7.9-8.2 4.3v-2c0-1-.4-1.9-1.1-2.6l2.5-.6v-2.3l-.2-.2c-1.1-.7-1.9-1.9-1.9-3.2v-1.5c0-1 .4-2 1.1-2.7.7-.7 1.7-1.1 2.7-1zm-23.8.1c2 .1 3.6 1.8 3.6 3.9v1.3c0 1.3-.7 2.5-1.9 3.2l-.4.2v2.3l2.5.6c-.7.7-1.1 1.6-1.1 2.6v.5l-2.3.5.1-.2v-1.4L8 21.2l1.6-.4v-2.3l-.4-.2c-1.1-.7-1.9-1.9-1.9-3.2v-1.5c0-1 .4-2 1.1-2.7.7-.7 1.7-1.1 2.7-1zm-9.7 9.6H2l5.3 3.1-2.7 10.8-3.2-1.1V19.5zM44.5 21v8.4L32 35.7l-.1-.1-6.3-5.6c-.5-.5-1.3-.8-2-.8-.5 0-1.1.1-1.5.4l-2.8 1.7c-.2.1-.3.1-.5.1-.6 0-1-.4-1-1v-.2c0-.4.2-.7.6-.9l4.1-2.1c.7-.4 1.5-.4 2.3-.2l4.7 1.3h1.1L44.5 21zM8.6 23.3l1.7 1v.2l-2.8 9.8-1.5-.5 2.6-10.5zm9.7 2.1c.7 0 1.4.2 2 .4l1.1.3-3.7 1.9c-.8.4-1.4 1.3-1.4 2.2v.1c0 1.4 1.1 2.5 2.5 2.5.5 0 .9-.1 1.3-.4l2.8-1.7c.6-.3 1.3-.3 1.8.2l6.3 5.6c.2.2.3.4.3.6-.1.6-.5.9-.9.9h-.1c-.2 0-.4-.1-.5-.2l-4-3.4-1 1.1 3.9 3.3c.2.1.3.4.3.6 0 .4-.3.8-.8.8H28c-.2 0-.4-.1-.5-.2l-4-3.4-1 1.1 3.9 3.3c.2.1.3.4.3.6 0 .4-.3.8-.8.8-.3 0-.6-.1-.8-.3l-1.7-1.4c-.4-.7-1.1-1.3-2-1.3 0-1.2-1-2.2-2.2-2.2 0-1.2-1-2.2-2.2-2.2 0-1.2-1.1-2.2-2.3-2.2-.6 0-1.2.2-1.6.7l-1.3 1.3c-.1.1-.1.2-.2.3l-2.3-1.4 2-7 5-1.1c.7-.1 1.3-.2 2-.2zm-3.6 9c.5 0 .8.4.8.8 0 .2-.1.4-.2.6L14 37.1c-.2.2-.4.2-.6.2-.4 0-.8-.4-.8-.8 0-.2.1-.4.2-.6l1.3-1.3c.2-.2.4-.2.6-.2zm2.2 2.2c.5 0 .8.4.8.8 0 .2-.1.4-.2.6l-1.3 1.3c-.2.2-.4.2-.6.2-.4 0-.8-.4-.8-.8 0-.2.1-.4.2-.6l1.3-1.3c.2-.2.4-.2.6-.2zm2.3 2.2c.5 0 .8.4.8.8 0 .2-.1.4-.2.6l-1.3 1.3c-.2.2-.4.2-.6.2-.5 0-.8-.3-.8-.8 0-.2.1-.4.2-.6l1.3-1.3c.2-.2.4-.2.6-.2zm2.2 2.3c.5 0 .8.4.8.8 0 .2-.1.4-.2.6l-1.3 1.3c-.1.1-.4.2-.6.2-.5 0-.8-.4-.8-.8 0-.2.1-.4.2-.6l1.3-1.3c.2-.2.4-.2.6-.2zm2.2 1.6l.7.6c.2.1.3.4.3.6-.1.5-.5.8-.9.8h-.1c-.2 0-.4-.1-.5-.2l-.6-.5.6-.6c.2-.2.4-.4.5-.7z" fill="#fff"/></svg>