<svg xmlns="http://www.w3.org/2000/svg" height="46" width="46" viewBox="0 0 46 45.9"><style></style><path d="M18 0l-.5 2c-.5.2-.9.3-1.3.5l-1.8-1.1-4 4 1.1 1.8c-.2.4-.4.9-.5 1.3L9 9v4a8.79 8.79 0 0 0-4.5 7.7v5.9c0 1.6 1.3 3 3 3h.4c.4.9 1 1.8 1.8 2.4v1.5l-5.9 1.7c-2.2.6-3.8 2.7-3.8 5v5.7h46V30.3h-.7c-.4 0-.7-.3-.7-.7 0-.4.3-.7.7-.7h.7v-5.2H34.1v3.8c-.9.3-1.5 1.1-1.5 2.1s.6 1.8 1.5 2.1v2.4h-3.7v.7c0 .4-.3.7-.7.7-.4 0-.7-.3-.7-.7v-.7h-5.2v1.4c-.3-.1-.5-.2-.8-.3l-5.9-1.7V32c.8-.6 1.4-1.5 1.8-2.4h.4c1.6 0 3-1.3 3-3v-3h1.3l.5-2c.5-.2.9-.3 1.3-.5l1.8 1.1 4-4-1.1-1.8c.2-.4.4-.9.5-1.3l2-.5v-1.9l2.8.7 2.3-9.1H46V2.9h-9.5l-2.2 8.7-1.7-.4V9l-2-.5c-.2-.5-.3-.9-.5-1.3l1.1-1.8-4-4-1.8 1.1c-.4-.2-.9-.4-1.3-.5l-.5-2H18zm1.1 1.3h3.3l.4 1.7.4.1c.6.2 1.2.4 1.8.7l.4.2 1.5-.9 2.3 2.3-.9 1.5.2.4c.3.6.6 1.2.7 1.8l.1.4 1.7.4v3.5h.2l-1.7.4-.1.4c-.2.6-.4 1.2-.7 1.8l-.2.4.9 1.5-2.3 2.3-1.5-.9-.4.2c-.6.3-1.2.6-1.8.7l-.4.1-.4 1.7h-.2v-1.5c0-.6-.1-1.1-.2-1.6 3.5-.6 6.1-3.7 6.1-7.3 0-4.1-3.3-7.4-7.4-7.4-4.1 0-7.4 3.3-7.4 7.4-1 0-2 .2-3 .5V9.9l1.7-.4.1-.4c.2-.6.4-1.2.7-1.8l.2-.4-.9-1.5 2.3-2.3 1.5.9.4-.2c.6-.3 1.2-.6 1.8-.7l.4-.1.4-1.7zm19.5 4.5v1.5H46V5.8h-7.4zm-17.9.1c3.3 0 5.9 2.7 5.9 5.9 0 2.9-2.2 5.4-5 5.9-.2-.5-.4-1-.7-1.4 2.3-.1 4.2-2.1 4.2-4.4 0-2.5-2-4.5-4.5-4.5s-4.5 2-4.5 4.5v.5c-.5-.2-1-.3-1.5-.4.2-.1.2-.2.2-.2 0-3.3 2.7-5.9 5.9-5.9zm.1 2.9c1.7 0 3 1.3 3 3s-1.3 3-3 3c-.3 0-.6-.1-1-.2-.5-.5-1-1-1.6-1.4-.2-.4-.4-.9-.4-1.4 0-1.6 1.3-3 3-3zm17.8 0v1.5H46V8.8h-7.4zm-1.5 3v1.5h1.5v-1.5h-1.5zm3 0v1.5h1.5v-1.5h-1.5zm2.9 0v1.5h1.5v-1.5H43zm-29.6 1.5c4.1 0 7.4 3.3 7.4 7.4v3.4c-.4-.3-.9-.4-1.5-.4v-3H7.4v3c-.5 0-1 .2-1.5.4v-3.4c0-4.1 3.4-7.4 7.5-7.4zm-4.6 8.9h8.9v5.2h.1c0 2.5-2 4.5-4.5 4.5s-4.5-2-4.5-4.5v-5.2zm-1.4 2.9v3c-.8 0-1.5-.7-1.5-1.5s.7-1.5 1.5-1.5zm28.2 0h8.9v2.4c-.9.3-1.5 1.1-1.5 2.1s.6 1.8 1.5 2.1v2.4h-3.1c-.3-.9-1.1-1.5-2.1-1.5s-1.8.6-2.1 1.5h-1.6v-3.7h-.7c-.4 0-.7-.3-.7-.7-.1-.5.3-.9.7-.9h.7v-3.7zm-16.3.1c.8 0 1.5.7 1.5 1.5 0 .7-.7 1.4-1.5 1.4V25.2zm-8.1 7.7c.7.3 1.4.4 2.2.4.8 0 1.5-.2 2.2-.4V34c0 1.2-1 2.2-2.2 2.2-1.2 0-2.2-1-2.2-2.2v-1.1zm28.1 1.3c.4 0 .7.3.7.7v.7h4.5v8.8h-8.9v-3.7h-.7c-.4 0-.7-.3-.7-.7 0-.4.3-.7.7-.7h.7v-3.7h3v-.7c0-.4.3-.7.7-.7zm-29.7.6c.4 1.6 1.9 2.8 3.6 2.8 1.7 0 3.2-1.2 3.6-2.8l5.7 1.8c.4.1.8.3 1.2.6v2h.7c.4 0 .7.3.7.7 0 .4-.3.7-.7.7h-.7v3.7h-3v-4.5h-1.5v4.5H7.3v-4.5H5.8v4.5H1.3V40c0-1.6 1.1-3.1 2.7-3.6l5.6-1.6zm15.7.7h2.3c.3.9 1.1 1.5 2.1 1.5s1.8-.6 2.1-1.5h2.4v2.4c-.9.3-1.5 1.1-1.5 2.1s.6 1.8 1.5 2.1v2.4h-8.9v-2.4c.9-.3 1.5-1.1 1.5-2.1s-.6-1.8-1.5-2.1v-2.4z" fill="#fff"/></svg>