<svg xmlns="http://www.w3.org/2000/svg" width="46" height="46"><style></style><path d="M26.2 0l-.6 1.9c-1.8.4-3.5 1.1-5 2.1l-1.7-.9L15 7l.9 1.7c-1 1.5-1.7 3.2-2.1 5l-1.9.6v3.5h-.6l-.7 2.8c-.7.2-1.4.5-2 .8l-2.5-1.5-4 4 1.5 2.5c-.3.6-.6 1.3-.8 2l-2.8.7v5.6l2.8.7c.2.7.5 1.4.8 2l-1.5 2.5 4 4 2.5-1.5c.6.3 1.3.6 2 .8l.7 2.8h5.6l.7-2.8c.7-.2 1.4-.5 2-.8l2.5 1.5 4-4-1.5-2.5c.3-.6.6-1.3.8-2l2.8-.7v-.6h3.5l.6-1.9c1.8-.4 3.5-1.1 5-2.1l1.7.9 3.9-3.9-.9-1.7c1-1.5 1.7-3.2 2.1-5l1.9-.6v-5.5l-1.9-.5c-.4-1.8-1.1-3.5-2.1-5l.9-1.7-3.9-4-1.7.9c-1.5-1-3.2-1.7-5-2.1L31.7 0h-5.5zm1.1 1.9h3.4l.6 1.7.4.1c1.9.4 3.6 1.1 5.2 2.2l.4.2 1.6-.8 2.4 2.4-.8 1.6.2.4c1.1 1.6 1.8 3.3 2.2 5.2l.1.4 1.7.6v3h-.2l-1.7.6-.1.4c-.4 1.9-1.1 3.6-2.2 5.2l-.2.4.8 1.6-2.4 2.4-1.6-.8-.4.2c-1.6 1.1-3.3 1.8-5.2 2.2l-.4.1-.6 1.7h-2.4v-3.5l-2.8-.7c-.2-.7-.5-1.4-.8-2l1.5-2.5-1.5-1.5 3.4-3.4c.3.1.6.2 1 .2.3 0 .7-.1 1-.2l4.3 4.3c-1.4 1.2-3.2 1.9-5.2 1.9-.7 0-1.3-.1-2-.2l-.4 1.4c.8.2 1.5.3 2.3.3 5.3 0 9.6-4.3 9.6-9.6s-4.3-9.6-9.6-9.6-9.6 4.3-9.6 9.6c0 .8.1 1.7.3 2.5l1.4-.4c-.2-.7-.3-1.4-.3-2.1 0-2 .7-3.8 1.9-5.2l4.3 4.3c-.1.3-.2.6-.2 1 0 .3.1.7.2 1l-3.4 3.4-1.5-1.5-2.5 1.5c-.6-.3-1.3-.6-2-.8l-.7-2.8h-3.5v-2.4l1.7-.6.1-.4c.4-1.9 1.1-3.6 2.2-5.2l.2-.4-.8-1.6 2.4-2.4 1.6.8.4-.2c1.6-1.1 3.3-1.8 5.2-2.2l.4-.1.6-1.7zM0 2.3v1.5h1.5V2.3H0zm3 0v1.5h4.9l1.4 1.5h5.5V3.8H10L8.5 2.3H3zm25.9 2.3c-6.6 0-12.2 5.2-12.6 11.8l1.5.1c.4-5.8 5.3-10.4 11.1-10.4 6.1 0 11.1 5 11.1 11.1 0 5.9-4.6 10.7-10.4 11.1l.1 1.5c6.6-.4 11.8-5.9 11.8-12.6 0-7-5.6-12.6-12.6-12.6zM3 6.8v1.5h1.5V6.8H3zm2.9 0v1.5h2.7l1.5 1.5h3.3V8.3h-2.7L9.2 6.8H5.9zM28.8 9c2 0 3.8.7 5.2 1.9l-4.1 4.3c-.3-.1-.6-.2-1-.2-.3 0-.7.1-1 .2l-4.3-4.3C25 9.7 26.8 9 28.8 9zm6.4 2.8c1.2 1.4 1.9 3.2 1.9 5.2 0 2.1-.7 4-1.9 5.4l-4.3-4.3c.1-.3.2-.6.2-1 0-.3-.1-.7-.2-1l4.3-4.3zm-6.3 4.7c.4 0 .7.3.7.7 0 .4-.3.7-.7.7-.4 0-.7-.3-.7-.7 0-.4.3-.7.7-.7zm-16.4 3h3.3l.6 2.5.4.1c.9.2 1.7.6 2.5 1l.4.2 2.2-1.3 2.3 2.3-1.3 2.2.2.4c.4.8.8 1.6 1 2.5l.1.4 2.5.6v3.3l-2.5.6-.1.4c-.2.9-.6 1.7-1 2.5l-.2.4 1.3 2.2-2.3 2.3-2.2-1.3-.4.2c-.8.4-1.6.8-2.5 1l-.4.1-.6 2.5h-3.3l-.6-2.5-.4-.1c-.9-.2-1.7-.6-2.5-1l-.4-.2-2.2 1.3-2.3-2.3 1.3-2.2-.2-.4c-.4-.8-.8-1.6-1-2.5l-.1-.4-2.5-.6v-3.3l2.5-.6.1-.4c.2-.9.6-1.7 1-2.5l.2-.4-1.3-2.2L6.4 22l2.2 1.3.4-.2c.8-.4 1.6-.8 2.5-1l.4-.1.6-2.5zm1.6 3.6c-4.9 0-8.9 4-8.9 8.9s4 8.9 8.9 8.9 8.9-4 8.9-8.9-4-8.9-8.9-8.9zm0 1.5c4.1 0 7.4 3.3 7.4 7.4 0 4.1-3.3 7.4-7.4 7.4-4.1 0-7.4-3.3-7.4-7.4 0-4.1 3.3-7.4 7.4-7.4zm0 3c-2.5 0-4.5 2-4.5 4.5s2 4.5 4.5 4.5 4.5-2 4.5-4.5c-.1-2.6-2-4.5-4.5-4.5zm0 1.4c1.6 0 3 1.3 3 3 0 1.6-1.4 3-3 3s-3-1.3-3-3c0-1.6 1.3-3 3-3zm12.6 8.2v1.5h6.4l1.5 1.5h5.5v-1.5h-4.9l-1.5-1.5h-7zm14.8 1.5v1.5H43v-1.5h-1.5zm-14.8 2.9v1.5h6.4l1.5 1.5h8.5v-1.5h-7.9l-1.5-1.5h-7zm17.8 1.5v1.5H46v-1.5h-1.5z" fill="#fff"/></svg>