<svg xmlns="http://www.w3.org/2000/svg" id="Layer_1" viewBox="0 0 163.9 45.8"><style id="style6550">.st0{fill:#00508f}.st1{fill:#fff}.st2{fill:#bacad3}.st3{fill:none;stroke:#00508f;stroke-width:1.0986}</style><g id="g7243"><path class="st0" id="rect6554" fill="#00508f" d="M0 .2h39.1v45.6H0z"/><path class="st1" d="M18.3 33.9v9.6h-3.1v-9.2l-8.4 8.2c-.4.4-.8.7-1.2.9-.4.2-.9.3-1.4.3-.5 0-.9-.1-1.3-.3-.4-.2-.7-.4-1-.7-.3-.3-.5-.7-.6-1.1-.1-.4-.2-.9-.2-1.3V.6h3.1v39.7l8.4-8.2c.8-.8 1.7-1.2 2.6-1.2.4 0 .8.1 1.1.2.4.1.7.3 1 .5.3.2.5.5.7.9.2.4.3.9.3 1.4z" id="path6556" fill="#fff"/><path class="st1" d="M22.9 43.4h-3v-9.2c0-.4.1-.8.2-1.2.2-.4.4-.7.6-1 .3-.3.6-.5 1-.7.4-.2.8-.2 1.2-.2.4 0 .8.1 1.1.2.3.1.6.3.9.6.3.2.5.5.7.8.2.3.4.7.5 1l2.8 6.8 3-7.2c.1-.3.3-.7.5-.9.2-.3.4-.5.7-.7.3-.2.5-.3.8-.5.3-.1.7-.2 1-.2.5 0 .9.1 1.3.3.4.2.7.4 1 .8.3.3.5.7.6 1.1.1.4.2.8.2 1.3v8.9h-3v-9l-2.9 6.4c-.2.5-.4.9-.6 1.3-.2.4-.4.7-.6.9-.2.2-.5.4-.8.5-.3.1-.7.2-1.1.2-.4 0-.8-.1-1.1-.2l-.9-.6c-.3-.3-.5-.6-.7-.9-.2-.3-.4-.7-.6-1.1l-2.9-6.3v8.8z" id="path6558" fill="#fff"/><path d="M43 43.5h-3.2V31.2h17.6v12.3h-3.3v-9.2H43v9.2z" id="path6560"/><path d="M62.1 35.8h11.7v-4.6H77v8.3c0 .5-.1 1-.3 1.5-.2.5-.5.9-.9 1.2-.4.4-.8.6-1.3.8-.5.2-1 .3-1.5.3H59.8v-3.2h13.9v-1.4H63.2c-.5 0-1-.1-1.5-.3-.5-.2-.9-.5-1.3-.8-.4-.3-.7-.7-.9-1.2-.2-.5-.3-1-.3-1.5V31h2.9v4.8z" id="path6562"/><path d="M81.9 43.5h-3.2v-8.3c0-.3 0-.6.2-1 .1-.3.2-.6.4-.9.2-.3.4-.6.6-.8.2-.3.5-.5.8-.7.3-.2.6-.3.9-.4.3-.1.6-.2.9-.2h13.8v12.3H93v-9.2H81.9v9.2z" id="path6564"/><path d="M111.5 43.5H98V31.2h3.3v4.6H112c.5 0 1 .1 1.5.3.5.2.9.5 1.3.8.4.4.7.8.9 1.2.2.5.3 1 .3 1.5 0 .6-.1 1.1-.4 1.5-.2.5-.6.9-1 1.2-.4.3-.9.6-1.4.8-.6.3-1.1.4-1.7.4zm-10.3-3.1h11.4v-1.6h-11.4v1.6z" id="path6566"/><path d="M135 31.2v3.1h-14.3v6.1h43.1v3.1h-42.2c-.5 0-1-.1-1.5-.3-.5-.2-.9-.4-1.3-.7-.4-.3-.7-.7-.9-1.1-.2-.4-.3-.9-.3-1.5v-4.1c0-1.5.4-2.7 1.2-3.4.8-.7 1.9-1.1 3.5-1.1H135z" id="path6568"/><path class="st0" d="M159.3 33.8V28h3.2v5.8h1.3V37h-1.3v3.4h-3.2V37h-10c-.8 0-1.4-.1-2-.2-.6-.1-1.1-.4-1.5-.7-.4-.3-.7-.8-.9-1.3-.2-.5-.3-1.2-.3-2.1v-4.6h3.4v5.8h11.3z" id="path6570" fill="#00508f"/><path id="rect6574" class="st2" fill="#bacad3" d="M114.7 9.7h12.1v8.7h-12.1z"/><path id="rect6576" class="st2" fill="#bacad3" d="M139.4 9.7h12.1v8.7h-12.1z"/><path id="rect6578" class="st2" fill="#bacad3" d="M102 18.4h12.1v8.7H102z"/><path id="rect6580" class="st2" fill="#bacad3" d="M77.6 18.4h12.1v8.7H77.6z"/><path id="rect6582" class="st2" fill="#bacad3" d="M53.2 1.2h12.1v8.7H53.2z"/><path id="rect6584" class="st2" fill="#bacad3" d="M127 1.2h12.1v8.7H127z"/><path id="rect6586" class="st2" fill="#bacad3" d="M90 9.7h12.1v8.7H90z"/><path id="rect6588" class="st2" fill="#bacad3" d="M65.3 9.7h12.1v8.7H65.3z"/><path id="rect6590" class="st2" fill="#bacad3" d="M41.1 9.7h12.1v8.7H41.1z"/><path id="rect6592" class="st2" fill="#bacad3" d="M151.9 12.1H164v4.4h-12.1z"/><path id="line6594" class="st3" fill="none" stroke="#00508f" stroke-width="1.099" d="M139.3 20.2V0"/><path id="line6596" class="st3" fill="none" stroke="#00508f" stroke-width="1.099" d="M53.2 20.2V0"/><path id="line6598" class="st3" fill="none" stroke="#00508f" stroke-width="1.099" d="M65.4 20.2V0"/><path id="line6600" class="st3" fill="none" stroke="#00508f" stroke-width="1.099" d="M126.9 20.2V0"/><path id="line6602" class="st3" fill="none" stroke="#00508f" stroke-width="1.099" d="M114.4 28.6V8.4"/><path id="line6604" class="st3" fill="none" stroke="#00508f" stroke-width="1.099" d="M102 28.6V8.4"/><path id="line6606" class="st3" fill="none" stroke="#00508f" stroke-width="1.099" d="M89.9 28.6V8.4"/><path id="line6608" class="st3" fill="none" stroke="#00508f" stroke-width="1.099" d="M77.5 28.6V8.4"/></g></svg>