<?xml version="1.0" standalone="no"?>
<!DOCTYPE svg PUBLIC "-//W3C//DTD SVG 20010904//EN"
 "http://www.w3.org/TR/2001/REC-SVG-20010904/DTD/svg10.dtd">
<svg version="1.0" xmlns="http://www.w3.org/2000/svg"
 width="700.000000pt" height="700.000000pt" viewBox="0 0 700.000000 700.000000"
 preserveAspectRatio="xMidYMid meet">
<metadata>
Created by potrace 1.11, written by Peter Selinger 2001-2013
</metadata>
<g transform="translate(0.000000,700.000000) scale(0.100000,-0.100000)"
fill="#000000" stroke="none">
<path d="M0 3500 l0 -3500 3500 0 3500 0 0 3500 0 3500 -3115 0 -3115 0 0
-3012 0 -3012 242 240 c782 771 1282 1260 1336 1303 120 96 241 141 384 141
256 0 440 -121 520 -341 l23 -64 0 -915 0 -915 -277 -3 -278 -2 -2 821 -3 822
-783 -764 c-495 -483 -808 -781 -850 -809 -85 -58 -183 -90 -292 -97 -260 -16
-463 133 -556 407 -18 53 -19 161 -22 3128 l-2 3072 -105 0 -105 0 0 -3500z
m4205 -890 c140 -23 304 -136 395 -272 60 -91 94 -169 356 -815 131 -326 241
-592 244 -592 3 0 126 289 274 642 148 353 285 675 304 714 96 199 268 318
477 330 214 13 408 -102 505 -300 79 -161 75 -109 75 -1052 l0 -840 -267 -3
-268 -2 -2 804 -3 804 -189 -417 c-436 -956 -469 -1022 -561 -1114 -73 -72
-144 -106 -255 -120 -172 -21 -298 22 -427 149 -128 127 -137 144 -494 924
l-254 555 -3 -793 -2 -792 -268 2 -267 3 -3 810 c-1 486 2 846 8 900 14 126
66 233 158 324 132 131 286 181 467 151z"/>
</g>
</svg>
